<?xml version="1.0" encoding="utf-8"?>
<!-- Generator: Adobe Illustrator 19.2.1, SVG Export Plug-In . SVG Version: 6.00 Build 0)  -->
<svg version="1.1"
	 id="svg2" inkscape:version="0.91 r13725" sodipodi:docname="trash-icon.svg" xmlns:cc="http://creativecommons.org/ns#" xmlns:dc="http://purl.org/dc/elements/1.1/" xmlns:inkscape="http://www.inkscape.org/namespaces/inkscape" xmlns:rdf="http://www.w3.org/1999/02/22-rdf-syntax-ns#" xmlns:sodipodi="http://sodipodi.sourceforge.net/DTD/sodipodi-0.dtd" xmlns:svg="http://www.w3.org/2000/svg"
	 xmlns="http://www.w3.org/2000/svg" xmlns:xlink="http://www.w3.org/1999/xlink" x="0px" y="0px" viewBox="0 0 400 120"
	 style="enable-background:new 0 0 400 120;" xml:space="preserve">
<style type="text/css">
	.st0{opacity:0.45;enable-background:new    ;}
	.st1{opacity:0.3;enable-background:new    ;}
</style>
<sodipodi:namedview  bordercolor="#666666" borderopacity="1.0" id="base" inkscape:bbox-nodes="true" inkscape:bbox-paths="true" inkscape:current-layer="layer1" inkscape:cx="36.193504" inkscape:cy="50.945434" inkscape:document-units="px" inkscape:guide-bbox="true" inkscape:pageopacity="0.0" inkscape:pageshadow="2" inkscape:snap-bbox="true" inkscape:snap-bbox-edge-midpoints="true" inkscape:window-height="721" inkscape:window-maximized="1" inkscape:window-width="1366" inkscape:window-x="0" inkscape:window-y="25" inkscape:zoom="1.28" pagecolor="#ffffff" showgrid="true" showguides="true">
	<inkscape:grid  empspacing="5" enabled="true" id="grid2985" snapvisiblegridlinesonly="true" type="xygrid" visible="true">
		</inkscape:grid>
	<sodipodi:guide  id="guide3920" orientation="1,0" position="200,105"></sodipodi:guide>
</sodipodi:namedview>
<g id="layer1" transform="translate(0,-932.36218)" inkscape:groupmode="layer" inkscape:label="Ebene 1">
	<path id="rect4179-2-0-9-8" class="st0" d="M8,938.4c-1.1,0-2,0.9-2,2v113c0,1.1,0.9,2,2,2h384c1.1,0,2-0.9,2-2v-113
		c0-1.1-0.9-2-2-2H8z M8,939.4h384c0.6,0,1,0.4,1,1v113c0,0.6-0.4,1-1,1H8c-0.6,0-1-0.4-1-1v-113C7,939.8,7.4,939.4,8,939.4z"/>
	<path id="rect4179-2-0-9" class="st1" d="M8,939.4h384c0.6,0,1,0.4,1,1v113c0,0.6-0.4,1-1,1H8c-0.6,0-1-0.4-1-1v-113
		C7,939.8,7.4,939.4,8,939.4z"/>
	
		<image style="overflow:visible;" width="256" height="256" id="image3917_1_" xlink:href="1D69F471.png"  transform="matrix(0.25 0 0 0.25 168 964.3622)">
	</image>
</g>
</svg>
