<?xml version="1.0" encoding="utf-8"?>
<!-- Generator: Adobe Illustrator 19.2.1, SVG Export Plug-In . SVG Version: 6.00 Build 0)  -->
<svg version="1.1"
	 id="svg2" inkscape:export-filename="/home/steffen/.local/share/themes/neu2/gtk-3.0/assets/dark/checkbox-unchecked.png" inkscape:export-xdpi="90" inkscape:export-ydpi="90" inkscape:version="0.91 r13725" sodipodi:docname="checkbox-checked-focused.svg" xmlns:cc="http://creativecommons.org/ns#" xmlns:dc="http://purl.org/dc/elements/1.1/" xmlns:inkscape="http://www.inkscape.org/namespaces/inkscape" xmlns:rdf="http://www.w3.org/1999/02/22-rdf-syntax-ns#" xmlns:sodipodi="http://sodipodi.sourceforge.net/DTD/sodipodi-0.dtd" xmlns:svg="http://www.w3.org/2000/svg"
	 xmlns="http://www.w3.org/2000/svg" xmlns:xlink="http://www.w3.org/1999/xlink" x="0px" y="0px" viewBox="0 0 16 16"
	 style="enable-background:new 0 0 16 16;" xml:space="preserve">
<style type="text/css">
	.st0{fill:none;}
	.st1{fill:#898989;}
	.st2{opacity:0.85;}
	.st3{fill:#303030;}
	.st4{fill:#EEEEEE;fill-opacity:0;}
</style>
<sodipodi:namedview  bordercolor="#666666" borderopacity="1.0" id="base" inkscape:bbox-nodes="true" inkscape:bbox-paths="true" inkscape:current-layer="layer1" inkscape:cx="-7.2080158" inkscape:cy="7.7067432" inkscape:document-units="px" inkscape:guide-bbox="true" inkscape:pageopacity="0.0" inkscape:pageshadow="2" inkscape:showpageshadow="false" inkscape:snap-bbox="true" inkscape:snap-bbox-edge-midpoints="true" inkscape:window-height="723" inkscape:window-maximized="0" inkscape:window-width="1006" inkscape:window-x="358" inkscape:window-y="22" inkscape:zoom="11.313709" pagecolor="#ffffff" showborder="true" showgrid="true" showguides="true">
	<inkscape:grid  empspacing="5" enabled="true" id="grid2985" snapvisiblegridlinesonly="true" type="xygrid" visible="true">
		</inkscape:grid>
</sodipodi:namedview>
<g id="layer1" transform="translate(0,-1036.3622)" inkscape:groupmode="layer" inkscape:label="Ebene 1">
	<g id="checkbox-checked-dark" transform="translate(-36,1036)" inkscape:label="#g10758">
		<g id="checkbox-unchecked-5-59" transform="translate(19,0)" inkscape:label="#g22047">
			<g id="sdsd-7-54" inkscape:label="#g21853">
				<g id="scdsdcd-5-8" transform="translate(0,-30)" inkscape:label="#g14325">
					<g id="g15812-6-6-1-5-4" transform="matrix(0.92951982,0,0,0.92914368,-156.75069,-212.9618)">
						<g id="g5489-2-9-6-8-8-53-5" transform="matrix(0.5089163,0,0,0.51739823,161.7932,197.56426)">
							<g id="g5428-8-1-4-0-0-4-2">
							</g>
						</g>
					</g>
					<rect id="rect13523-7-11" x="17" y="30.4" class="st0" width="16" height="16"/>
					<g id="g5400-6-68">
						<path id="rect5147-9-1-5-7-6-7-4" class="st1" d="M20,31.4h10c1.1,0,2,0.9,2,2v10c0,1.1-0.9,2-2,2H20c-1.1,0-2-0.9-2-2v-10
							C18,32.3,18.9,31.4,20,31.4z"/>
					</g>
				</g>
			</g>
		</g>
		<g id="checkbox-checked-dark-7-37" transform="translate(36,-1036)" inkscape:label="Ebene 1">
			<g id="g3981-6-4-97" transform="matrix(0.70710678,0.70710678,-0.70710678,0.70710678,729.95475,305.0582)" class="st2">
			</g>
			<g id="g4049-2-5" transform="matrix(0.70710678,0.70710678,-0.70710678,0.70710678,727.94436,295.31123)">
				<g id="g4056-7-6" transform="translate(12.374375,11.531233)">
					<g id="g3981-0-8" transform="translate(-3,-4.9999826)">
						<path id="rect3977-39-90" class="st3" d="M8.7,1033.4h3.7c0.4,0,0.7,0.3,0.7,0.7v0.7c0,0.4-0.3,0.7-0.7,0.7H8.7
							c-0.4,0-0.7-0.3-0.7-0.7v-0.7C8,1033.7,8.3,1033.4,8.7,1033.4z"/>
						
							<rect id="rect3979-7-60" x="8" y="1030.4" transform="matrix(2.535182e-006 1 -1 2.535182e-006 1043.3618 1019.3593)" class="st3" width="8" height="2"/>
					</g>
					
						<rect id="rect4047-81-5" x="6" y="1027.4" transform="matrix(2.535182e-006 1 -1 2.535182e-006 1035.3618 1022.3593)" class="st4" width="1" height="3"/>
				</g>
			</g>
		</g>
	</g>
</g>
</svg>
